<svg xmlns="http://www.w3.org/2000/svg" xmlns:xlink="http://www.w3.org/1999/xlink" viewBox="0 0 640 640" width="128" height="128"><defs><path d="M328.53 40.21l2.58.26 2.55.37 2.52.46 2.48.56 2.44.65 2.41.75 2.36.84 2.32.93 2.28 1.01 2.22 1.1 2.18 1.19 2.12 1.26 2.07 1.34 2.02 1.42 1.95 1.49 1.9 1.56 1.83 1.64 1.77 1.7 1.71 1.77 1.63 1.84 1.57 1.89 1.49 1.96 1.42 2.02 1.34 2.07 1.26 2.12 1.19 2.18 1.1 2.22 1.01 2.28.93 2.32.84 2.36.74 2.4.66 2.45.56 2.48.46 2.52.36 2.55.27 2.58.16 2.61.05 2.64-.05 2.64-.16 2.61-.27 2.58-.36 2.55-.46 2.52-.56 2.48-.66 2.45-.74 2.4-.84 2.36-.93 2.32-1.01 2.28-1.1 2.22-1.19 2.18-1.26 2.12-1.34 2.07-1.42 2.02-1.49 1.96-1.57 1.89-1.63 1.84-1.71 1.77-1.77 1.7-1.83 1.64-1.9 1.56-1.95 1.49-2.02 1.42-2.07 1.34-2.12 1.26-2.18 1.19-2.22 1.1-2.28 1.01-2.32.93-2.36.84-2.41.75-2.44.65-2.48.56-2.52.46-2.55.37-2.58.26-2.61.16-2.64.05-2.64-.05-2.61-.16-2.58-.26-2.55-.37-2.52-.46-2.48-.56-2.45-.65-2.4-.75-2.36-.84-2.32-.93-2.28-1.01-2.22-1.1-2.18-1.19-2.13-1.26-2.07-1.34-2.01-1.42-1.96-1.49-1.89-1.56-1.84-1.64-1.77-1.7-1.7-1.77-1.64-1.84-1.56-1.89-1.49-1.96-1.42-2.02-1.34-2.07-1.27-2.12-1.18-2.18-1.1-2.22-1.01-2.28-.93-2.32-.84-2.36-.75-2.4-.65-2.45-.56-2.48-.46-2.52-.37-2.55-.26-2.58-.16-2.61-.05-2.64.05-2.64.16-2.61.26-2.58.37-2.55.46-2.52.56-2.48.65-2.45.75-2.4.84-2.36.93-2.32 1.01-2.28 1.1-2.22 1.18-2.18 1.27-2.12 1.34-2.07 1.42-2.02 1.49-1.96 1.56-1.89 1.64-1.84 1.7-1.77 1.77-1.7 1.84-1.64 1.89-1.56 1.96-1.49 2.01-1.42 2.07-1.34 2.13-1.26 2.18-1.19 2.22-1.1 2.28-1.01 2.32-.93 2.36-.84 2.4-.75 2.45-.65 2.48-.56 2.52-.46 2.55-.37 2.58-.26 2.61-.16 2.64-.05 2.64.05 2.61.16z" id="a"/><path d="M325.25 258.21l2.58.26 2.55.37 2.52.46 2.48.56 2.45.65 2.4.75 2.36.84 2.32.93 2.28 1.01 2.22 1.1 2.18 1.19 2.12 1.26 2.07 1.34 2.02 1.42 1.96 1.49 1.89 1.56 1.84 1.64 1.77 1.7 1.7 1.77 1.64 1.84 1.56 1.89 1.49 1.96 1.42 2.02 1.34 2.07 1.26 2.12 1.19 2.18 1.1 2.22 1.01 2.28.93 2.32.84 2.36.75 2.4.65 2.45.56 2.48.46 2.52.37 2.55.26 2.58.16 2.61.05 2.64-.05 2.64-.16 2.61-.26 2.58-.37 2.55-.46 2.52-.56 2.48-.65 2.45-.75 2.4-.84 2.36-.93 2.32-1.01 2.28-1.1 2.22-1.19 2.18-1.26 2.12-1.34 2.07-1.42 2.02-1.49 1.96-1.56 1.89-1.64 1.84-1.7 1.77-1.77 1.7-1.84 1.64-1.89 1.56-1.96 1.49-2.02 1.42-2.07 1.34-2.12 1.26-2.18 1.19-2.22 1.1-2.28 1.01-2.32.93-2.36.84-2.4.75-2.45.65-2.48.56-2.52.46-2.55.37-2.58.26-2.61.16-2.64.05-2.64-.05-2.61-.16-2.58-.26-2.55-.37-2.52-.46-2.48-.56-2.45-.65-2.4-.75-2.36-.84-2.32-.93-2.28-1.01-2.22-1.1-2.18-1.19-2.12-1.26-2.07-1.34-2.02-1.42-1.96-1.49-1.89-1.56-1.84-1.64-1.77-1.7-1.7-1.77-1.64-1.84-1.56-1.89-1.49-1.96-1.42-2.02-1.34-2.07-1.26-2.12-1.19-2.18-1.1-2.22-1.01-2.28-.93-2.32-.84-2.36-.75-2.4-.65-2.45-.56-2.48-.46-2.52-.37-2.55-.26-2.58-.16-2.61L256 322l.05-2.64.16-2.61.26-2.58.37-2.55.46-2.52.56-2.48.65-2.45.75-2.4.84-2.36.93-2.32 1.01-2.28 1.1-2.22 1.19-2.18 1.26-2.12 1.34-2.07 1.42-2.02 1.49-1.96 1.56-1.89 1.64-1.84 1.7-1.77 1.77-1.7 1.84-1.64 1.89-1.56 1.96-1.49 2.02-1.42 2.07-1.34 2.12-1.26 2.18-1.19 2.22-1.1 2.28-1.01 2.32-.93 2.36-.84 2.4-.75 2.45-.65 2.48-.56 2.52-.46 2.55-.37 2.58-.26 2.61-.16L320 258l2.64.05 2.61.16z" id="b"/><path d="M328.53 472.21l2.58.26 2.55.37 2.52.46 2.48.56 2.44.65 2.41.75 2.36.84 2.32.93 2.28 1.01 2.22 1.1 2.18 1.19 2.12 1.26 2.07 1.34 2.02 1.42 1.95 1.49 1.9 1.56 1.83 1.64 1.77 1.7 1.71 1.77 1.63 1.84 1.57 1.89 1.49 1.96 1.42 2.02 1.34 2.07 1.26 2.12 1.19 2.18 1.1 2.22 1.01 2.28.93 2.32.84 2.36.74 2.4.66 2.45.56 2.48.46 2.52.36 2.55.27 2.58.16 2.61.05 2.64-.05 2.64-.16 2.61-.27 2.58-.36 2.55-.46 2.52-.56 2.48-.66 2.45-.74 2.4-.84 2.36-.93 2.32-1.01 2.28-1.1 2.22-1.19 2.18-1.26 2.12-1.34 2.07-1.42 2.02-1.49 1.96-1.57 1.89-1.63 1.84-1.71 1.77-1.77 1.7-1.83 1.64-1.9 1.56-1.95 1.49-2.02 1.42-2.07 1.34-2.12 1.26-2.18 1.19-2.22 1.1-2.28 1.01-2.32.93-2.36.84-2.41.75-2.44.65-2.48.56-2.52.46-2.55.37-2.58.26-2.61.16-2.64.05-2.64-.05-2.61-.16-2.58-.26-2.55-.37-2.52-.46-2.48-.56-2.45-.65-2.4-.75-2.36-.84-2.32-.93-2.28-1.01-2.22-1.1-2.18-1.19-2.13-1.26-2.07-1.34-2.01-1.42-1.96-1.49-1.89-1.56-1.84-1.64-1.77-1.7-1.7-1.77-1.64-1.84-1.56-1.89-1.49-1.96-1.42-2.02-1.34-2.07-1.27-2.12-1.18-2.18-1.1-2.22-1.01-2.28-.93-2.32-.84-2.36-.75-2.4-.65-2.45-.56-2.48-.46-2.52-.37-2.55-.26-2.58-.16-2.61-.05-2.64.05-2.64.16-2.61.26-2.58.37-2.55.46-2.52.56-2.48.65-2.45.75-2.4.84-2.36.93-2.32 1.01-2.28 1.1-2.22 1.18-2.18 1.27-2.12 1.34-2.07 1.42-2.02 1.49-1.96 1.56-1.89 1.64-1.84 1.7-1.77 1.77-1.7 1.84-1.64 1.89-1.56 1.96-1.49 2.01-1.42 2.07-1.34 2.13-1.26 2.18-1.19 2.22-1.1 2.28-1.01 2.32-.93 2.36-.84 2.4-.75 2.45-.65 2.48-.56 2.52-.46 2.55-.37 2.58-.26 2.61-.16 2.64-.05 2.64.05 2.61.16z" id="c"/></defs><use xlink:href="#a"/><use xlink:href="#a" fill-opacity="0" stroke="#000" stroke-opacity="0"/><use xlink:href="#b"/><use xlink:href="#b" fill-opacity="0" stroke="#000" stroke-opacity="0"/><g><use xlink:href="#c"/><use xlink:href="#c" fill-opacity="0" stroke="#000" stroke-opacity="0"/></g></svg>