<svg xmlns="http://www.w3.org/2000/svg" viewBox="0 0 26 26"><path d="M20.094.25a2.247 2.247 0 0 0-1.625.656l-1 1.031 6.593 6.625 1-1.03a2.32 2.32 0 0 0 0-3.282L21.75.937A2.364 2.364 0 0 0 20.094.25zm-3.75 2.594l-1.563 1.5 6.875 6.875L23.25 9.75zM13.78 5.438L2.97 16.155a.979.979 0 0 0-.5.625L.156 24.625a.98.98 0 0 0 .242.977.98.98 0 0 0 .977.242l7.844-2.313a.979.979 0 0 0 .781-.656l10.656-10.563-1.468-1.468L8.25 21.813l-4.406 1.28-.938-.937 1.344-4.593L15.094 6.75zm2.375 2.406l-10.968 11 1.593.343.219 1.47 11-10.97z"/></svg>